<svg version="1.1"  xmlns="http://www.w3.org/2000/svg" xmlns:xlink="http://www.w3.org/1999/xlink" x="0px" y="0px"
	 viewBox="0 0 100 100" style="enable-background:new 0 0 100 100;" xml:space="preserve">
<path d="M78.7,2.1H20.7c-10.1,0-18.3,8.2-18.3,18.2v19.3v38.7c0,10.1,8.2,18.2,18.3,18.2h57.9
	c10.1,0,18.3-8.2,18.3-18.2V39.6V20.3C96.9,10.2,88.7,2.1,78.7,2.1z M83.9,12.9l2.1,0V15v13.9l-16,0.1L70,13L83.9,12.9z M36.2,39.6
	c3-4.2,7.9-6.9,13.5-6.9s10.5,2.7,13.5,6.9c2,2.7,3.1,6.1,3.1,9.7c0,9.2-7.5,16.6-16.6,16.6c-9.2,0-16.6-7.5-16.6-16.6
	C33.1,45.7,34.3,42.3,36.2,39.6z M87.7,78.2c0,5-4.1,9-9.1,9H20.7c-5,0-9.1-4.1-9.1-9V39.6h14.1c-1.2,3-1.9,6.3-1.9,9.7
	c0,14.2,11.6,25.8,25.8,25.8c14.2,0,25.8-11.6,25.8-25.8c0-3.4-0.7-6.7-1.9-9.7h14.1V78.2z"/>
</svg>
