<svg xmlns="http://www.w3.org/2000/svg" xmlns:xlink="http://www.w3.org/1999/xlink" viewBox="0 0 25 25"><defs><linearGradient id="linear-gradient" x1="-2.69" y1="28.72" x2="47.43" y2="-22.54" gradientTransform="translate(.14 25.83) scale(1 -1)" gradientUnits="userSpaceOnUse"><stop offset="0" stop-color="#3d8ecc"/><stop offset="0" stop-color="#3d8ccc"/><stop offset=".29" stop-color="#5c75b8"/><stop offset=".55" stop-color="#836aac"/><stop offset=".75" stop-color="#a266a8"/><stop offset=".91" stop-color="#b865a5"/><stop offset="1" stop-color="#c165a5"/></linearGradient></defs><path d="M22.22,0c.74,0,1.44,.29,1.96,.81,.52,.52,.81,1.23,.81,1.96V22.22c0,.74-.29,1.44-.81,1.96-.52,.52-1.23,.81-1.96,.81H2.78c-.74,0-1.44-.29-1.96-.81-.52-.52-.81-1.23-.81-1.96V2.78c0-.74,.29-1.44,.81-1.96,.52-.52,1.23-.81,1.96-.81H22.22Zm-.69,21.53v-7.36c0-1.2-.48-2.35-1.33-3.2-.85-.85-2-1.33-3.2-1.33s-2.56,.72-3.22,1.81v-1.54h-3.87v11.62h3.87v-6.85c0-1.07,.86-1.94,1.93-1.94,.52,0,1.01,.2,1.37,.57,.36,.36,.57,.86,.57,1.37v6.85h3.87ZM5.39,7.72c.62,0,1.21-.25,1.65-.68,.44-.44,.68-1.03,.68-1.65,0-1.29-1.04-2.35-2.33-2.35-.62,0-1.22,.25-1.66,.69-.44,.44-.69,1.04-.69,1.66,0,1.29,1.06,2.33,2.35,2.33Zm1.93,13.81V9.9H3.47v11.62h3.85Z" fill="url(#linear-gradient)"/></svg>