<?xml version="1.0" encoding="UTF-8"?><svg id="Layer_1" xmlns="http://www.w3.org/2000/svg" xmlns:xlink="http://www.w3.org/1999/xlink" viewBox="0 0 26.67 26.67"><defs><linearGradient id="linear-gradient" x1="-541.72" y1="273.27" x2="-488.26" y2="218.59" gradientTransform="translate(539 270.18) scale(1 -1)" gradientUnits="userSpaceOnUse"><stop offset="0" stop-color="#0197f6"/><stop offset="0" stop-color="#0496f6"/><stop offset=".29" stop-color="#5c7df0"/><stop offset=".55" stop-color="#a269eb"/><stop offset=".75" stop-color="#d45ae7"/><stop offset=".91" stop-color="#f351e5"/><stop offset="1" stop-color="#ff4ee4"/></linearGradient></defs><path d="M19.12,0H7.56C3.04,0,0,3.17,0,7.89v10.89c0,4.71,3.04,7.88,7.56,7.88h11.56c4.52,0,7.55-3.17,7.55-7.88V7.89c0-4.72-3.03-7.89-7.55-7.89Z" fill="url(#linear-gradient)"/><path d="M11.75,17.66c-.3,0-.6-.11-.83-.34l-3.16-3.16c-.46-.46-.46-1.19,0-1.65,.46-.46,1.19-.46,1.65,0l2.34,2.34,5.5-5.5c.46-.46,1.19-.46,1.65,0,.46,.46,.46,1.19,0,1.65l-6.33,6.33c-.23,.23-.53,.34-.83,.34Z" fill="#fff"/></svg>