<svg xmlns="http://www.w3.org/2000/svg" xmlns:xlink="http://www.w3.org/1999/xlink" viewBox="0 0 20.92 17"><defs><linearGradient id="linear-gradient" x1=".56" y1="22.05" x2="33.78" y2="-19.75" gradientTransform="translate(.14 17.83) scale(1 -1)" gradientUnits="userSpaceOnUse"><stop offset="0" stop-color="#3d8ecc"/><stop offset="0" stop-color="#3d8ccc"/><stop offset=".29" stop-color="#5c75b8"/><stop offset=".55" stop-color="#836aac"/><stop offset=".75" stop-color="#a266a8"/><stop offset=".91" stop-color="#b865a5"/><stop offset="1" stop-color="#c165a5"/></linearGradient></defs><path d="M20.92,2c-.77,.35-1.6,.58-2.46,.69,.88-.53,1.56-1.37,1.88-2.38-.83,.5-1.75,.85-2.72,1.05-.79-.86-1.9-1.36-3.16-1.36-2.35,0-4.27,1.92-4.27,4.29,0,.34,.04,.67,.11,.98C6.74,5.09,3.57,3.38,1.46,.79c-.37,.63-.58,1.37-.58,2.15,0,1.49,.75,2.81,1.91,3.56-.71,0-1.37-.2-1.95-.5v.03c0,2.08,1.48,3.82,3.44,4.21-.36,.1-.74,.15-1.13,.15-.27,0-.54-.03-.8-.08,.54,1.69,2.11,2.95,4,2.98-1.46,1.16-3.31,1.84-5.33,1.84-.34,0-.68-.02-1.02-.06,1.9,1.22,4.16,1.93,6.58,1.93,7.88,0,12.21-6.54,12.21-12.21,0-.19,0-.37-.01-.56,.84-.6,1.56-1.36,2.14-2.23Z" fill="url(#linear-gradient)"/></svg>