<svg  data-name="Layer 1" xmlns="http://www.w3.org/2000/svg" viewBox="0 0 39.96 32.48"><path d="M35.39,14.53l0,1.06c0,10.83-8.25,23.33-23.32,23.33A23.22,23.22,0,0,1-.48,35.24c.63.06,1.3.11,2,.11a16.38,16.38,0,0,0,10.18-3.52A8.18,8.18,0,0,1,4,26.14a7.84,7.84,0,0,0,1.55.15A8,8,0,0,0,7.69,26a8.23,8.23,0,0,1-6.57-8v-.11a8,8,0,0,0,3.72,1A8.21,8.21,0,0,1,2.3,7.94,23.21,23.21,0,0,0,19.2,16.5,8,8,0,0,1,19,14.64,8.2,8.2,0,0,1,33.17,9a16,16,0,0,0,5.22-2,8.43,8.43,0,0,1-3.63,4.54,16.1,16.1,0,0,0,4.71-1.29,16.29,16.29,0,0,1-4.08,4.24" transform="translate(0.48 -6.44)" fill="#FFFFFF"/></svg>